<svg xmlns="http://www.w3.org/2000/svg" viewBox="0 0 464.069 381.53"><path fill="currentColor" d="M196.792 381.53c-21.569.001-48.912-5.354-61.381-19.942C116.605 358.256 89 346.052 89 317.113v-87.535c-1.888 2.486-3.087 8.021-4.759 23.849-1.746 16.53-2.966 48.579-3.695 67.729-.314 8.269-.522 13.732-.688 16.026-1.367 18.911-17.657 32.119-39.614 32.119-22.587 0-39.51-13.023-40.216-30.967L0 338.06v-.274c0-1.691.788-169.392.661-192.684-.147-27.278 2.109-58.019 19.908-79.197C34.7 49.09 59.949 37.041 90.286 32.522c5.11-5.003 15.583-14.871 26.078-22.468C125.451 3.477 135.712 0 146.035 0c8.238 0 16.292 2.266 23.661 6.611 5.717-2.331 14.148-4.855 23.847-4.855 12.259 0 29.188 4.086 43.142 22.528l90.517-1.402c.18-.004.595-.012 1.227-.012 6.054 0 37.825.832 68.931 17.248 28.174 14.869 62.611 46.326 66.677 111.749l.009.158c.056 1.119 1.075 26.676-18.044 53.987V330.28c0 1.99.096 4.065.188 6.073.493 10.671 1.317 28.532-19.761 36.037-12.104 4.309-27.398 6.682-43.065 6.682-12.123.001-40.795-1.571-58.482-15.329-22.317-1.99-57.88-13.857-57.88-48.129v21.166c0 15.256-8.936 27.98-25.161 35.829-11.895 5.752-27.893 8.92-45.049 8.921zM97.648 200.588c8.489 0 12.62 4.474 14.002 6.396l2.35 3.27v106.859c0 17.366 29.348 20.352 29.644 20.377l7.11.605 3.093 6.432c2.36 4.906 19.01 12.004 42.943 12.003 22.466-.001 45.209-6.785 45.209-19.751v-87.424l16.342 5.279c4.221 1.362 15.193 2.086 21.28 2.146l12.379.12v58.713c0 21.614 37.878 23.41 38.26 23.422l4.893.154 3.487 3.436c6.95 6.847 24.923 11.447 44.723 11.446 12.883 0 25.199-1.858 34.681-5.234 3.499-1.245 3.636-1.294 3.172-11.331-.101-2.184-.215-4.659-.215-7.227V197.721l2.554-3.354c15.732-20.667 15.544-40.164 15.522-41.075-2.714-43.162-20.675-73.8-53.386-91.064-25.894-13.665-52.243-14.357-57.263-14.357-.351 0-.564.004-.63.005l-.141.003-104.375 1.616-3.732-6.026c-6.966-11.246-15.473-16.712-26.007-16.712-10.032 0-18.429 4.925-18.512 4.975l-7.585 4.659-6.81-5.688c-4.613-3.783-9.525-5.701-14.6-5.701-6.348 0-11.667 2.886-15.011 5.306-12.374 8.957-25.403 22.216-25.952 22.776l-3.676 3.753-4.468.004C71.584 60.1 50.233 69.476 39.716 81.99c-12.59 14.981-14.161 40.242-14.038 62.977.124 22.868-.602 183.473-.643 192.546.353 3.512 7.642 6.789 15.208 6.789 2.343 0 14.065-.43 14.679-8.923.135-1.868.37-8.034.641-15.174.741-19.463 1.981-52.038 3.815-69.404 2.341-22.168 4.033-38.185 23.122-46.484 5.771-2.509 10.725-3.729 15.148-3.729z"/></svg>